# xmcd
#
# Track frame offsets: 
#        150
#        16819
#        32472
#        46209
#        63355
#        83302
#        103243
#        121675
#        136241
#        148196
#        166839
#        179495
#
# Disc length: 2629 seconds
#
# Revision: 0
# Processed by: cddbd v1.5.1PL2 Copyright (c) Steve Scherf et al.
# Submitted via: ExactAudioCopy v0.95b3
#
DISCID=900a430c
DTITLE=Bill Sheffield - Hearing Things
DYEAR=2004
DGENRE=Blues
TTITLE0=The Error Of My Ways
TTITLE1=Hearing Things
TTITLE2=My Father's Son
TTITLE3=13 Hours On The Highway
TTITLE4=Cooter Brown
TTITLE5=Anna Lee
TTITLE6=The Woman Of My Dreams
TTITLE7=Over And Over Again
TTITLE8=Little Martha
TTITLE9=St Peter's Blues (Raise A Little Hell)
TTITLE10=The Road To Galilee
TTITLE11=When You Call My Name
EXTD=
EXTT0=
EXTT1=
EXTT2=
EXTT3=
EXTT4=
EXTT5=
EXTT6=
EXTT7=
EXTT8=
EXTT9=
EXTT10=
EXTT11=
PLAYORDER=
